<svg width="40" height="41" fill="none" xmlns="http://www.w3.org/2000/svg"><circle cx="20" cy="20.584" r="20" fill="#E14A04"/><path fill-rule="evenodd" clip-rule="evenodd" d="M13.07 18.172a19.368 19.368 0 0010.037 9.746l.014.006.86.383a2.531 2.531 0 003.081-.83l1.434-1.984a.281.281 0 00-.051-.384l-2.503-2.02a.281.281 0 00-.403.052l-.974 1.315a.844.844 0 01-1.026.266 15.061 15.061 0 01-7.504-7.504.844.844 0 01.267-1.025l1.314-.975a.281.281 0 00.052-.402l-2.02-2.503a.281.281 0 00-.383-.052l-1.995 1.44a2.531 2.531 0 00-.823 3.1l.623 1.37v.001zm9.371 11.296a21.055 21.055 0 01-10.905-10.593l-.001-.003-.624-1.372a4.219 4.219 0 011.371-5.167l1.995-1.44a1.969 1.969 0 012.685.36l2.02 2.503a1.97 1.97 0 01-.361 2.818l-.753.558a13.378 13.378 0 005.757 5.758l.558-.753a1.969 1.969 0 012.818-.36l2.503 2.019c.815.657.973 1.837.36 2.685l-1.434 1.984a4.219 4.219 0 01-5.136 1.383l-.853-.38z" fill="#fff"/></svg>