<svg width="40" height="41" fill="none" xmlns="http://www.w3.org/2000/svg"><circle cx="20" cy="20.703" r="20" fill="#E14A04"/><path fill-rule="evenodd" clip-rule="evenodd" d="M15.012 14.574a.842.842 0 00.063.348 7.577 7.577 0 00-2.669 5.781 7.577 7.577 0 002.67 5.78.841.841 0 00-.064.349l.098 3.248a1.768 1.768 0 001.248 1.636c2.373.73 4.91.73 7.284 0a1.768 1.768 0 001.248-1.636l.098-3.248a.84.84 0 00-.063-.348 7.6 7.6 0 002.328-3.524.844.844 0 001.466-.57v-3.375a.844.844 0 00-1.466-.57 7.6 7.6 0 00-2.328-3.523.84.84 0 00.063-.348l-.098-3.248a1.768 1.768 0 00-1.248-1.636c-2.373-.73-4.91-.73-7.284 0a1.768 1.768 0 00-1.248 1.636l-.098 3.248zm8.134-3.271a10.71 10.71 0 00-6.292 0 .08.08 0 00-.057.074l-.075 2.474A7.564 7.564 0 0120 13.11c1.174 0 2.286.267 3.278.742l-.075-2.474a.08.08 0 00-.057-.074zm-6.349 18.726l-.075-2.474a7.564 7.564 0 003.278.742 7.564 7.564 0 003.278-.742l-.075 2.474a.08.08 0 01-.057.074c-2.05.63-4.242.63-6.292 0a.08.08 0 01-.057-.074zM20 14.797a5.906 5.906 0 100 11.812 5.906 5.906 0 000-11.812z" fill="#fff"/></svg>