<svg width="40" height="41" fill="none" xmlns="http://www.w3.org/2000/svg"><path fill-rule="evenodd" clip-rule="evenodd" d="M0 20.079c0-11.046 8.954-20 20-20s20 8.954 20 20-8.954 20-20 20-20-8.954-20-20z" fill="#E14A04"/><path fill-rule="evenodd" clip-rule="evenodd" d="M21.046 26.642s.385-.042.582-.25c.181-.19.175-.55.175-.55s-.024-1.679.77-1.927c.782-.243 1.787 1.624 2.854 2.342.805.543 1.416.424 1.416.424l2.85-.04s1.49-.09.784-1.24c-.059-.094-.413-.85-2.119-2.405-1.787-1.628-1.547-1.365.605-4.18 1.31-1.715 1.834-2.761 1.67-3.209-.155-.428-1.12-.314-1.12-.314l-3.207.019s-.238-.032-.414.072c-.172.101-.284.338-.284.338s-.507 1.326-1.184 2.455c-1.429 2.38-2 2.506-2.233 2.358-.544-.345-.408-1.384-.408-2.123 0-2.307.357-3.269-.694-3.518-.348-.083-.605-.137-1.497-.146-1.145-.012-2.113.004-2.662.267-.365.175-.647.566-.475.589.212.028.692.127.947.467.328.44.317 1.425.317 1.425s.189 2.716-.442 3.053c-.432.231-1.024-.24-2.298-2.4a19.907 19.907 0 01-1.145-2.33s-.095-.228-.265-.351c-.205-.149-.492-.195-.492-.195l-3.048.02s-.458.012-.626.208c-.15.173-.012.532-.012.532s2.387 5.48 5.089 8.243c2.478 2.532 5.291 2.366 5.291 2.366h1.275z" fill="#fff"/></svg>