<svg width="40" height="41" fill="none" xmlns="http://www.w3.org/2000/svg"><circle cx="20" cy="20.703" r="20" fill="#E14A04"/><path fill-rule="evenodd" clip-rule="evenodd" d="M14.656 18.453a5.344 5.344 0 1110.688 0 5.344 5.344 0 01-10.688 0zM20 14.797a3.656 3.656 0 100 7.312 3.656 3.656 0 000-7.312z" fill="#fff"/><path fill-rule="evenodd" clip-rule="evenodd" d="M10.465 17.167a9.324 9.324 0 019.292-8.558h.486a9.324 9.324 0 019.292 8.558 10.061 10.061 0 01-2.238 7.195l-5.392 6.595a2.46 2.46 0 01-3.81 0l-5.392-6.595a10.061 10.061 0 01-2.238-7.195zm9.292-6.87a7.636 7.636 0 00-7.61 7.009 8.373 8.373 0 001.863 5.988l5.392 6.595a.773.773 0 001.196 0l5.392-6.595a8.373 8.373 0 001.863-5.988 7.636 7.636 0 00-7.61-7.01h-.486z" fill="#fff"/></svg>