<svg width="40" height="41" fill="none" xmlns="http://www.w3.org/2000/svg"><circle cx="20" cy="20.198" r="20" fill="#E14A04"/><path fill-rule="evenodd" clip-rule="evenodd" d="M9.56 16.169c-.315 2.928-.301 6.305.137 9.222a3.53 3.53 0 003.186 2.992l1.699.148c3.543.307 7.105.307 10.648 0l1.699-.148a3.53 3.53 0 003.185-2.992c.439-2.917.453-6.294.138-9.222a34.96 34.96 0 00-.138-1.017 3.53 3.53 0 00-3.185-2.992l-1.7-.148a61.488 61.488 0 00-10.647 0l-1.7.148a3.53 3.53 0 00-3.185 2.992c-.05.338-.096.677-.137 1.017zm5.168-2.476c3.445-.3 6.91-.3 10.356 0l1.699.148c.848.074 1.536.72 1.663 1.562l.038.262-6.256 3.476a4.78 4.78 0 01-4.644 0l-6.256-3.475.038-.263a1.843 1.843 0 011.663-1.562l1.699-.148zm13.963 3.788a32.744 32.744 0 01-.245 7.659 1.843 1.843 0 01-1.663 1.562l-1.7.147c-3.445.3-6.91.3-10.355 0l-1.699-.147a1.843 1.843 0 01-1.663-1.562 32.738 32.738 0 01-.245-7.659l5.643 3.135a6.469 6.469 0 006.283 0l5.643-3.135z" fill="#fff"/></svg>