<svg width="200" height="60" fill="none" xmlns="http://www.w3.org/2000/svg"><path d="M86.2.35H.6v46h85.6v-46z" fill="#FF5100"/><path d="M64.4 28.45c8.8 0 13.4-4.5 13.4-10.6s-4.6-10.6-13.4-10.6H48.9v31.6h9v-10.4h6.5zm-6.5-14.2h6.5c2.8 0 4.4 1.6 4.4 3.6s-1.6 3.6-4.4 3.6h-6.5v-7.2zm-31.2 25.7l17.6-29.8c-2.5-1.4-5.3-2.5-8.3-3.4l-9.3 16.9-9.3-16.9c-3 .9-5.8 2-8.3 3.4l17.6 29.8zm90.7-32.8c0 3.2-1.7 5.1-4.1 5.9 2.7.8 5.2 2.7 5.2 6.7 0 6.1-5.9 7.5-10.6 7.5H96.3V.35h11.8c5.7 0 9.3 2.2 9.3 6.8zm-9.3 8.5H102v6.9h5.8c2.6 0 4.9-.5 4.9-3.5 0-2.8-2.3-3.4-4.6-3.4zm-.5-10.6h-5.5v6.2h5.8c2.2 0 3.8-1 3.8-3.1-.1-2.1-1.6-3.1-4.1-3.1zm33.5.4h-13.2v5.7H140v5.1h-12.1v6h13.5v5h-19.2V.35h18.9v5.1zM154 .35h6.2l11 26.9h-6l-2-5h-12.3l-2 5h-6L154 .35zm7.5 17.1l-3.8-9.7c-.2-.5-.4-1.1-.6-2.1-.2 1-.4 1.6-.6 2.1l-3.7 9.7h8.7zM173.4.35h11.1c5.2 0 10.7 2 10.7 8.8 0 4.6-2.6 7-5.9 8l8 10.2h-6.7l-7.3-9.4h-4.2v9.4h-5.8v-27h.1zm11.4 12.7c2.4 0 4.5-1.1 4.5-3.8 0-2.8-2.1-3.8-4.5-3.8h-5.6v7.6h5.6zm-82.7 40.7h13.1v5.2H96.3v-26.9h5.8v21.7zm28-22.3c9.5 0 14.3 6.7 14.3 14s-4.8 14-14.3 14-14.3-6.7-14.3-14 4.8-14 14.3-14zm0 5.4c-5.6 0-8.4 3.9-8.4 8.7 0 4.7 2.8 8.7 8.4 8.7 5.6 0 8.4-3.9 8.4-8.7 0-4.8-2.8-8.7-8.4-8.7zm31.1-5.4c2.9 0 5.8.6 8.3 1.7v5.5c-2-1.3-4.8-2.1-7.5-2.1-4.8 0-9.5 2.5-9.5 8.8 0 7.2 5.3 9 9.2 9 1.2 0 2.2-.2 3-.5v-9.6h5.5v13.3c-2.7 1.2-5.8 1.8-8.8 1.8-7.5 0-14.8-4.1-14.8-14 0-9.6 7.2-13.9 14.6-13.9zm21.6.6h6.2l11 26.9h-6l-2-5h-12.3l-2 5h-6l11.1-26.9zm7.4 17.1l-3.8-9.7c-.2-.5-.4-1.1-.6-2.1-.2 1-.4 1.6-.6 2.1l-3.7 9.7h8.7zM4.6 51.95c.7 0 1.5.2 2.1.5v.9c-.5-.4-1.2-.5-1.9-.5-1.5 0-3.1.9-3.2 3 0 2 1.6 2.9 3.2 2.9.8 0 1.5-.2 2-.5v.9c-.6.3-1.4.5-2.2.5-1.9 0-3.9-1.3-3.9-3.8 0-2.6 2-3.9 3.9-3.9zm6.8 4.7l-3-4.6h1l2.4 3.8 2.4-3.8h1l-3 4.6v2.8h-.8v-2.8zm11.4-2.7c0 .9-.6 1.5-1.2 1.6.6.2 1.5.7 1.5 1.9 0 1.7-1.7 2-2.7 2h-3.1v-7.4h3c1.5 0 2.5.6 2.5 1.9zm-2.6-1h-2.1v2.3h2.3c.8 0 1.5-.3 1.5-1.2 0-.9-.7-1.1-1.7-1.1zm.2 3.1h-2.3v2.6h2.1c.9 0 2-.1 2-1.3s-1.1-1.3-1.8-1.3zm10.2-3.1h-4.1v2.4h3.8v.8h-3.8v2.5h4.1v.8h-5v-7.4h5v.9zm2.4-.9h2.9c1.3 0 2.8.6 2.8 2.2 0 1.4-.9 2-2 2.2l2.5 3h-1.1l-2.4-2.9h-1.8v2.9H33v-7.4zm3 3.7c.9 0 1.8-.3 1.8-1.4 0-1.1-.9-1.4-1.8-1.4h-2.1v2.8H36zm11.5-3.7h1l3.2 7.4h-1l-.8-1.8h-4l-.8 1.8h-1l3.4-7.4zm2.1 4.8l-1.5-3.6c0-.1-.1-.2-.1-.3 0 .1-.1.2-.1.3l-1.5 3.6h3.2zm4.1-4.8h2.9c1.3 0 2.8.6 2.8 2.2 0 1.4-.9 2-2 2.2l2.5 3h-1.1l-2.4-2.9h-1.8v2.9h-.9v-7.4zm3 3.7c.9 0 1.8-.3 1.8-1.4 0-1.1-.9-1.4-1.8-1.4h-2.1v2.8h2.1zm10.3-2.8h-4.1v2.4h3.8v.8h-3.8v2.5h4.2v.8H62v-7.4h5v.9zm2.5-.9h.8l4.5 5.9v-5.9h.9v7.4h-.9l-4.4-5.9v5.9h-.9v-7.4zm11.4 0h1l3.2 7.4h-1l-.8-1.8h-4l-.8 1.8h-1l3.4-7.4zm2.2 4.8l-1.5-3.6c0-.1-.1-.2-.1-.3 0 .1-.1.2-.1.3l-1.5 3.6h3.2z" fill="#fff"/></svg>