<svg width="100" height="101" fill="none" xmlns="http://www.w3.org/2000/svg"><path fill-rule="evenodd" clip-rule="evenodd" d="M41.667 14.114c-9.78 0-17.709 7.929-17.709 17.709S31.887 49.53 41.667 49.53s17.708-7.928 17.708-17.708c0-9.78-7.928-17.709-17.708-17.709zM30.208 31.823c0-6.328 5.13-11.459 11.459-11.459 6.328 0 11.458 5.13 11.458 11.459 0 6.328-5.13 11.458-11.458 11.458-6.329 0-11.459-5.13-11.459-11.458z" fill="#fff"/><path d="M15.625 71.406A9.375 9.375 0 0125 62.031h1.42c.11 0 .22.017.324.052l3.606 1.177a36.452 36.452 0 008.683 1.706c.618.045 1.16-.39 1.3-.993a28.924 28.924 0 011.223-3.967.892.892 0 00-.8-1.209 30.205 30.205 0 01-8.466-1.478l-3.606-1.178a7.292 7.292 0 00-2.264-.36H25c-8.63 0-15.625 6.996-15.625 15.625v4.951a6.404 6.404 0 005.372 6.32 167.062 167.062 0 0027.156 2.183c.634 0 1.032-.685.748-1.252a28.968 28.968 0 01-1.578-3.807 1.743 1.743 0 00-1.618-1.206 160.78 160.78 0 01-23.701-2.086.154.154 0 01-.129-.152v-4.95zm56.25-7.083a3.125 3.125 0 10-6.25 0v7.386c0 1 .478 1.94 1.287 2.527l4.167 3.03a3.125 3.125 0 103.676-5.054l-2.88-2.094v-5.795z" fill="#fff"/><path fill-rule="evenodd" clip-rule="evenodd" d="M68.75 93.49c12.656 0 22.917-10.26 22.917-22.917 0-12.657-10.26-22.917-22.917-22.917-12.657 0-22.917 10.26-22.917 22.917 0 12.656 10.26 22.916 22.917 22.916zm0-6.25c9.205 0 16.667-7.463 16.667-16.667 0-9.205-7.462-16.667-16.667-16.667-9.205 0-16.667 7.462-16.667 16.667 0 9.204 7.462 16.666 16.667 16.666z" fill="#fff"/></svg>