<svg width="101" height="101" fill="none" xmlns="http://www.w3.org/2000/svg"><path d="M54.739 48.49a6.25 6.25 0 1112.5 0 6.25 6.25 0 01-12.5 0zm-7.767 6.676a3.125 3.125 0 00-5.3 0L31.256 71.834a3.125 3.125 0 002.65 4.781h33.333a3.125 3.125 0 002.5-5l-6.25-8.333a3.125 3.125 0 00-5 0l-3.515 4.687-8.002-12.802z" fill="#fff"/><path fill-rule="evenodd" clip-rule="evenodd" d="M29.739 9.948c-6.328 0-11.458 5.13-11.458 11.458V79.74c0 6.329 5.13 11.459 11.458 11.459h41.667c6.328 0 11.458-5.13 11.458-11.459V33.771c0-1.586-.517-3.13-1.474-4.395L68.9 12.844a7.292 7.292 0 00-5.819-2.896H29.74zM24.53 21.406a5.208 5.208 0 015.208-5.208h30.208v18.32c0 1.727 1.4 3.126 3.125 3.126h13.542v42.095a5.208 5.208 0 01-5.208 5.209H29.739a5.208 5.208 0 01-5.208-5.209V21.406z" fill="#fff"/></svg>