<svg width="100" height="101" fill="none" xmlns="http://www.w3.org/2000/svg"><path d="M41.667 38.073a8.333 8.333 0 1116.666 0 8.333 8.333 0 01-16.666 0zm4.166 14.583c-6.903 0-12.5 5.597-12.5 12.5a4.167 4.167 0 004.167 4.167h25a4.167 4.167 0 004.167-4.167c0-6.903-5.597-12.5-12.5-12.5h-8.334z" fill="#fff"/><path fill-rule="evenodd" clip-rule="evenodd" d="M31.431 12.584a130.545 130.545 0 0137.138 0 13.319 13.319 0 0111.37 11.977l.528 5.816a222.933 222.933 0 010 40.392l-.529 5.816a13.319 13.319 0 01-11.37 11.977 130.545 130.545 0 01-37.137 0 13.319 13.319 0 01-11.37-11.977l-.528-5.816a222.934 222.934 0 010-40.393l.529-5.815a13.319 13.319 0 0111.37-11.977zm36.249 6.187a124.3 124.3 0 00-35.36 0 7.069 7.069 0 00-6.034 6.356l-.529 5.816a216.69 216.69 0 000 39.26l.529 5.816a7.069 7.069 0 006.034 6.356 124.3 124.3 0 0035.36 0 7.069 7.069 0 006.034-6.356l.53-5.816a216.69 216.69 0 000-39.26l-.53-5.816a7.069 7.069 0 00-6.034-6.356z" fill="#fff"/></svg>