<svg width="100" height="101" fill="none" xmlns="http://www.w3.org/2000/svg"><path d="M50 38.073a8.333 8.333 0 100 16.667 8.333 8.333 0 000-16.667zM33.333 73.49c0-6.904 5.597-12.5 12.5-12.5h8.334c6.903 0 12.5 5.596 12.5 12.5a4.167 4.167 0 01-4.167 4.166h-25a4.167 4.167 0 01-4.167-4.166z" fill="#fff"/><path fill-rule="evenodd" clip-rule="evenodd" d="M29.167 9.948c-6.329 0-11.459 5.13-11.459 11.458V79.74c0 6.328 5.13 11.458 11.459 11.458h41.666c6.329 0 11.459-5.13 11.459-11.458V34.73a7.291 7.291 0 00-1.368-4.251L68.369 12.988a7.292 7.292 0 00-5.924-3.04H29.167zm-5.209 11.458a5.208 5.208 0 015.209-5.208h30.208v18.321c0 1.726 1.4 3.125 3.125 3.125h13.542V79.74a5.208 5.208 0 01-5.209 5.208H29.167a5.208 5.208 0 01-5.209-5.208V21.406z" fill="#fff"/></svg>